<mxfile host="app.diagrams.net" agent="Mozilla/5.0 (Windows NT 10.0; Win64; x64) AppleWebKit/537.36 (KHTML, like Gecko) Chrome/136.0.0.0 Safari/537.36 Edg/136.0.0.0" version="26.2.14">
  <diagram name="Страница — 1" id="1gqzCnhEy-u4oYYrUJ1C">
    <mxGraphModel dx="2071" dy="707" grid="1" gridSize="10" guides="1" tooltips="1" connect="1" arrows="1" fold="1" page="1" pageScale="1" pageWidth="827" pageHeight="1169" math="0" shadow="0">
      <root>
        <mxCell id="0" />
        <mxCell id="1" parent="0" />
        <mxCell id="IbFKlV0IFGIT0l1UQyQG-3" value="" style="group" vertex="1" connectable="0" parent="1">
          <mxGeometry x="370" y="60" width="120" height="60" as="geometry" />
        </mxCell>
        <mxCell id="Io3cTdZjKZm4roTcFceG-1" value="" style="rounded=1;whiteSpace=wrap;html=1;" parent="IbFKlV0IFGIT0l1UQyQG-3" vertex="1">
          <mxGeometry width="120" height="60" as="geometry" />
        </mxCell>
        <mxCell id="Io3cTdZjKZm4roTcFceG-2" value="" style="endArrow=none;html=1;rounded=0;entryX=1;entryY=0.167;entryDx=0;entryDy=0;entryPerimeter=0;" parent="IbFKlV0IFGIT0l1UQyQG-3" target="Io3cTdZjKZm4roTcFceG-1" edge="1">
          <mxGeometry width="50" height="50" relative="1" as="geometry">
            <mxPoint y="10" as="sourcePoint" />
            <mxPoint x="70" y="15.384615384615358" as="targetPoint" />
          </mxGeometry>
        </mxCell>
        <mxCell id="IbFKlV0IFGIT0l1UQyQG-1" value="&lt;font style=&quot;font-size: 9px;&quot;&gt;Добавление нового оборудования&lt;/font&gt;" style="text;html=1;align=center;verticalAlign=middle;whiteSpace=wrap;rounded=0;" vertex="1" parent="IbFKlV0IFGIT0l1UQyQG-3">
          <mxGeometry x="20" y="15" width="90" height="30" as="geometry" />
        </mxCell>
        <mxCell id="IbFKlV0IFGIT0l1UQyQG-4" value="&lt;font style=&quot;font-size: 9px;&quot;&gt;Преподаватель&lt;/font&gt;" style="rounded=0;whiteSpace=wrap;html=1;" vertex="1" parent="1">
          <mxGeometry x="180" y="60" width="120" height="60" as="geometry" />
        </mxCell>
        <mxCell id="IbFKlV0IFGIT0l1UQyQG-5" value="" style="endArrow=classic;html=1;rounded=0;" edge="1" parent="1">
          <mxGeometry width="50" height="50" relative="1" as="geometry">
            <mxPoint x="300" y="89.66" as="sourcePoint" />
            <mxPoint x="370" y="89.66" as="targetPoint" />
          </mxGeometry>
        </mxCell>
        <mxCell id="IbFKlV0IFGIT0l1UQyQG-13" value="" style="group" vertex="1" connectable="0" parent="1">
          <mxGeometry x="560" y="70" width="150" height="40" as="geometry" />
        </mxCell>
        <mxCell id="IbFKlV0IFGIT0l1UQyQG-7" value="" style="rounded=0;whiteSpace=wrap;html=1;" vertex="1" parent="IbFKlV0IFGIT0l1UQyQG-13">
          <mxGeometry width="30" height="40" as="geometry" />
        </mxCell>
        <mxCell id="IbFKlV0IFGIT0l1UQyQG-9" value="" style="endArrow=none;html=1;rounded=0;entryX=1;entryY=0.167;entryDx=0;entryDy=0;entryPerimeter=0;" edge="1" parent="IbFKlV0IFGIT0l1UQyQG-13">
          <mxGeometry width="50" height="50" relative="1" as="geometry">
            <mxPoint x="30" as="sourcePoint" />
            <mxPoint x="150" as="targetPoint" />
          </mxGeometry>
        </mxCell>
        <mxCell id="IbFKlV0IFGIT0l1UQyQG-10" value="" style="endArrow=none;html=1;rounded=0;entryX=1;entryY=0.167;entryDx=0;entryDy=0;entryPerimeter=0;" edge="1" parent="IbFKlV0IFGIT0l1UQyQG-13">
          <mxGeometry width="50" height="50" relative="1" as="geometry">
            <mxPoint x="30" y="40" as="sourcePoint" />
            <mxPoint x="150" y="40" as="targetPoint" />
          </mxGeometry>
        </mxCell>
        <mxCell id="IbFKlV0IFGIT0l1UQyQG-12" value="&lt;span style=&quot;font-size: 9px;&quot;&gt;База данных оборудования&lt;/span&gt;" style="text;html=1;align=center;verticalAlign=middle;whiteSpace=wrap;rounded=0;" vertex="1" parent="IbFKlV0IFGIT0l1UQyQG-13">
          <mxGeometry x="40" y="5" width="100" height="30" as="geometry" />
        </mxCell>
        <mxCell id="IbFKlV0IFGIT0l1UQyQG-14" value="" style="endArrow=classic;html=1;rounded=0;" edge="1" parent="1">
          <mxGeometry width="50" height="50" relative="1" as="geometry">
            <mxPoint x="490" y="89.8" as="sourcePoint" />
            <mxPoint x="560" y="89.8" as="targetPoint" />
          </mxGeometry>
        </mxCell>
        <mxCell id="IbFKlV0IFGIT0l1UQyQG-15" value="&lt;font style=&quot;font-size: 9px;&quot;&gt;Преподаватель&lt;/font&gt;" style="rounded=0;whiteSpace=wrap;html=1;" vertex="1" parent="1">
          <mxGeometry x="-70" y="190" width="120" height="60" as="geometry" />
        </mxCell>
        <mxCell id="IbFKlV0IFGIT0l1UQyQG-16" value="" style="endArrow=classic;html=1;rounded=0;" edge="1" parent="1">
          <mxGeometry width="50" height="50" relative="1" as="geometry">
            <mxPoint x="50" y="219.57999999999998" as="sourcePoint" />
            <mxPoint x="90" y="220" as="targetPoint" />
          </mxGeometry>
        </mxCell>
        <mxCell id="IbFKlV0IFGIT0l1UQyQG-17" value="" style="group" vertex="1" connectable="0" parent="1">
          <mxGeometry x="90" y="190" width="120" height="60" as="geometry" />
        </mxCell>
        <mxCell id="IbFKlV0IFGIT0l1UQyQG-18" value="" style="rounded=1;whiteSpace=wrap;html=1;" vertex="1" parent="IbFKlV0IFGIT0l1UQyQG-17">
          <mxGeometry width="120" height="60" as="geometry" />
        </mxCell>
        <mxCell id="IbFKlV0IFGIT0l1UQyQG-19" value="" style="endArrow=none;html=1;rounded=0;entryX=1;entryY=0.167;entryDx=0;entryDy=0;entryPerimeter=0;" edge="1" parent="IbFKlV0IFGIT0l1UQyQG-17" target="IbFKlV0IFGIT0l1UQyQG-18">
          <mxGeometry width="50" height="50" relative="1" as="geometry">
            <mxPoint y="10" as="sourcePoint" />
            <mxPoint x="70" y="15.384615384615358" as="targetPoint" />
          </mxGeometry>
        </mxCell>
        <mxCell id="IbFKlV0IFGIT0l1UQyQG-20" value="&lt;font style=&quot;font-size: 9px;&quot;&gt;Заполнение формы добавления оборудования&lt;/font&gt;" style="text;html=1;align=center;verticalAlign=middle;whiteSpace=wrap;rounded=0;" vertex="1" parent="IbFKlV0IFGIT0l1UQyQG-17">
          <mxGeometry x="20" y="15" width="90" height="30" as="geometry" />
        </mxCell>
        <mxCell id="IbFKlV0IFGIT0l1UQyQG-21" value="" style="group" vertex="1" connectable="0" parent="1">
          <mxGeometry x="250" y="190" width="120" height="60" as="geometry" />
        </mxCell>
        <mxCell id="IbFKlV0IFGIT0l1UQyQG-22" value="" style="rounded=1;whiteSpace=wrap;html=1;" vertex="1" parent="IbFKlV0IFGIT0l1UQyQG-21">
          <mxGeometry width="120" height="60" as="geometry" />
        </mxCell>
        <mxCell id="IbFKlV0IFGIT0l1UQyQG-23" value="" style="endArrow=none;html=1;rounded=0;entryX=1;entryY=0.167;entryDx=0;entryDy=0;entryPerimeter=0;" edge="1" parent="IbFKlV0IFGIT0l1UQyQG-21" target="IbFKlV0IFGIT0l1UQyQG-22">
          <mxGeometry width="50" height="50" relative="1" as="geometry">
            <mxPoint y="10" as="sourcePoint" />
            <mxPoint x="70" y="15.384615384615358" as="targetPoint" />
          </mxGeometry>
        </mxCell>
        <mxCell id="IbFKlV0IFGIT0l1UQyQG-24" value="&lt;font style=&quot;font-size: 9px;&quot;&gt;Валидация формы&lt;/font&gt;" style="text;html=1;align=center;verticalAlign=middle;whiteSpace=wrap;rounded=0;" vertex="1" parent="IbFKlV0IFGIT0l1UQyQG-21">
          <mxGeometry x="20" y="15" width="90" height="30" as="geometry" />
        </mxCell>
        <mxCell id="IbFKlV0IFGIT0l1UQyQG-25" value="" style="endArrow=classic;html=1;rounded=0;" edge="1" parent="1">
          <mxGeometry width="50" height="50" relative="1" as="geometry">
            <mxPoint x="210" y="219.57999999999998" as="sourcePoint" />
            <mxPoint x="250" y="220" as="targetPoint" />
          </mxGeometry>
        </mxCell>
        <mxCell id="IbFKlV0IFGIT0l1UQyQG-26" value="" style="group" vertex="1" connectable="0" parent="1">
          <mxGeometry x="413" y="190" width="120" height="60" as="geometry" />
        </mxCell>
        <mxCell id="IbFKlV0IFGIT0l1UQyQG-27" value="" style="rounded=1;whiteSpace=wrap;html=1;" vertex="1" parent="IbFKlV0IFGIT0l1UQyQG-26">
          <mxGeometry width="120" height="60" as="geometry" />
        </mxCell>
        <mxCell id="IbFKlV0IFGIT0l1UQyQG-28" value="" style="endArrow=none;html=1;rounded=0;entryX=1;entryY=0.167;entryDx=0;entryDy=0;entryPerimeter=0;" edge="1" parent="IbFKlV0IFGIT0l1UQyQG-26" target="IbFKlV0IFGIT0l1UQyQG-27">
          <mxGeometry width="50" height="50" relative="1" as="geometry">
            <mxPoint y="10" as="sourcePoint" />
            <mxPoint x="70" y="15.384615384615358" as="targetPoint" />
          </mxGeometry>
        </mxCell>
        <mxCell id="IbFKlV0IFGIT0l1UQyQG-29" value="&lt;font style=&quot;font-size: 9px;&quot;&gt;Подготовка данных&lt;/font&gt;" style="text;html=1;align=center;verticalAlign=middle;whiteSpace=wrap;rounded=0;" vertex="1" parent="IbFKlV0IFGIT0l1UQyQG-26">
          <mxGeometry x="20" y="15" width="90" height="30" as="geometry" />
        </mxCell>
        <mxCell id="IbFKlV0IFGIT0l1UQyQG-30" value="" style="endArrow=classic;html=1;rounded=0;entryX=0;entryY=0.5;entryDx=0;entryDy=0;" edge="1" parent="1" target="IbFKlV0IFGIT0l1UQyQG-27">
          <mxGeometry width="50" height="50" relative="1" as="geometry">
            <mxPoint x="370" y="219.57999999999998" as="sourcePoint" />
            <mxPoint x="410" y="220" as="targetPoint" />
          </mxGeometry>
        </mxCell>
        <mxCell id="IbFKlV0IFGIT0l1UQyQG-31" value="" style="group" vertex="1" connectable="0" parent="1">
          <mxGeometry x="390" y="310" width="150" height="40" as="geometry" />
        </mxCell>
        <mxCell id="IbFKlV0IFGIT0l1UQyQG-32" value="" style="rounded=0;whiteSpace=wrap;html=1;" vertex="1" parent="IbFKlV0IFGIT0l1UQyQG-31">
          <mxGeometry width="30" height="40" as="geometry" />
        </mxCell>
        <mxCell id="IbFKlV0IFGIT0l1UQyQG-33" value="" style="endArrow=none;html=1;rounded=0;entryX=1;entryY=0.167;entryDx=0;entryDy=0;entryPerimeter=0;" edge="1" parent="IbFKlV0IFGIT0l1UQyQG-31">
          <mxGeometry width="50" height="50" relative="1" as="geometry">
            <mxPoint x="30" as="sourcePoint" />
            <mxPoint x="150" as="targetPoint" />
          </mxGeometry>
        </mxCell>
        <mxCell id="IbFKlV0IFGIT0l1UQyQG-34" value="" style="endArrow=none;html=1;rounded=0;entryX=1;entryY=0.167;entryDx=0;entryDy=0;entryPerimeter=0;" edge="1" parent="IbFKlV0IFGIT0l1UQyQG-31">
          <mxGeometry width="50" height="50" relative="1" as="geometry">
            <mxPoint x="30" y="40" as="sourcePoint" />
            <mxPoint x="150" y="40" as="targetPoint" />
          </mxGeometry>
        </mxCell>
        <mxCell id="IbFKlV0IFGIT0l1UQyQG-35" value="&lt;span style=&quot;font-size: 9px;&quot;&gt;База данных оборудования&lt;/span&gt;" style="text;html=1;align=center;verticalAlign=middle;whiteSpace=wrap;rounded=0;" vertex="1" parent="IbFKlV0IFGIT0l1UQyQG-31">
          <mxGeometry x="40" y="5" width="100" height="30" as="geometry" />
        </mxCell>
        <mxCell id="IbFKlV0IFGIT0l1UQyQG-36" value="" style="endArrow=classic;html=1;rounded=0;" edge="1" parent="1">
          <mxGeometry width="50" height="50" relative="1" as="geometry">
            <mxPoint x="470" y="251" as="sourcePoint" />
            <mxPoint x="470" y="310" as="targetPoint" />
          </mxGeometry>
        </mxCell>
        <mxCell id="IbFKlV0IFGIT0l1UQyQG-37" value="" style="group" vertex="1" connectable="0" parent="1">
          <mxGeometry x="570" y="190" width="120" height="60" as="geometry" />
        </mxCell>
        <mxCell id="IbFKlV0IFGIT0l1UQyQG-38" value="" style="rounded=1;whiteSpace=wrap;html=1;" vertex="1" parent="IbFKlV0IFGIT0l1UQyQG-37">
          <mxGeometry width="120" height="60" as="geometry" />
        </mxCell>
        <mxCell id="IbFKlV0IFGIT0l1UQyQG-39" value="" style="endArrow=none;html=1;rounded=0;entryX=1;entryY=0.167;entryDx=0;entryDy=0;entryPerimeter=0;" edge="1" parent="IbFKlV0IFGIT0l1UQyQG-37" target="IbFKlV0IFGIT0l1UQyQG-38">
          <mxGeometry width="50" height="50" relative="1" as="geometry">
            <mxPoint y="10" as="sourcePoint" />
            <mxPoint x="70" y="15.384615384615358" as="targetPoint" />
          </mxGeometry>
        </mxCell>
        <mxCell id="IbFKlV0IFGIT0l1UQyQG-40" value="&lt;font style=&quot;font-size: 9px;&quot;&gt;Сохранение данных&lt;/font&gt;" style="text;html=1;align=center;verticalAlign=middle;whiteSpace=wrap;rounded=0;" vertex="1" parent="IbFKlV0IFGIT0l1UQyQG-37">
          <mxGeometry x="20" y="15" width="90" height="30" as="geometry" />
        </mxCell>
        <mxCell id="IbFKlV0IFGIT0l1UQyQG-41" value="" style="endArrow=classic;html=1;rounded=0;" edge="1" parent="1">
          <mxGeometry width="50" height="50" relative="1" as="geometry">
            <mxPoint x="533" y="219.70999999999998" as="sourcePoint" />
            <mxPoint x="570" y="220" as="targetPoint" />
          </mxGeometry>
        </mxCell>
        <mxCell id="IbFKlV0IFGIT0l1UQyQG-42" value="" style="endArrow=classic;html=1;rounded=0;entryX=0;entryY=0.5;entryDx=0;entryDy=0;" edge="1" parent="1" target="IbFKlV0IFGIT0l1UQyQG-44">
          <mxGeometry width="50" height="50" relative="1" as="geometry">
            <mxPoint x="690" y="219.76" as="sourcePoint" />
            <mxPoint x="727" y="220.05" as="targetPoint" />
          </mxGeometry>
        </mxCell>
        <mxCell id="IbFKlV0IFGIT0l1UQyQG-43" value="" style="group" vertex="1" connectable="0" parent="1">
          <mxGeometry x="730" y="200" width="150" height="40" as="geometry" />
        </mxCell>
        <mxCell id="IbFKlV0IFGIT0l1UQyQG-44" value="" style="rounded=0;whiteSpace=wrap;html=1;" vertex="1" parent="IbFKlV0IFGIT0l1UQyQG-43">
          <mxGeometry width="30" height="40" as="geometry" />
        </mxCell>
        <mxCell id="IbFKlV0IFGIT0l1UQyQG-45" value="" style="endArrow=none;html=1;rounded=0;entryX=1;entryY=0.167;entryDx=0;entryDy=0;entryPerimeter=0;" edge="1" parent="IbFKlV0IFGIT0l1UQyQG-43">
          <mxGeometry width="50" height="50" relative="1" as="geometry">
            <mxPoint x="30" as="sourcePoint" />
            <mxPoint x="150" as="targetPoint" />
          </mxGeometry>
        </mxCell>
        <mxCell id="IbFKlV0IFGIT0l1UQyQG-46" value="" style="endArrow=none;html=1;rounded=0;entryX=1;entryY=0.167;entryDx=0;entryDy=0;entryPerimeter=0;" edge="1" parent="IbFKlV0IFGIT0l1UQyQG-43">
          <mxGeometry width="50" height="50" relative="1" as="geometry">
            <mxPoint x="30" y="40" as="sourcePoint" />
            <mxPoint x="150" y="40" as="targetPoint" />
          </mxGeometry>
        </mxCell>
        <mxCell id="IbFKlV0IFGIT0l1UQyQG-47" value="&lt;span style=&quot;font-size: 9px;&quot;&gt;База данных оборудования&lt;/span&gt;" style="text;html=1;align=center;verticalAlign=middle;whiteSpace=wrap;rounded=0;" vertex="1" parent="IbFKlV0IFGIT0l1UQyQG-43">
          <mxGeometry x="40" y="5" width="100" height="30" as="geometry" />
        </mxCell>
      </root>
    </mxGraphModel>
  </diagram>
</mxfile>
